<?xml version="1.0" encoding="utf-8"?>
<!-- Generator: Adobe Illustrator 22.0.1, SVG Export Plug-In . SVG Version: 6.00 Build 0)  -->
<svg version="1.1" xmlns="http://www.w3.org/2000/svg" xmlns:xlink="http://www.w3.org/1999/xlink" x="0px" y="0px"
	 viewBox="0 0 309 374.3" style="enable-background:new 0 0 309 374.3;" xml:space="preserve">
<style type="text/css">
	.st0{fill:#FFFFFF;}
	.st1{fill:#0008C6;}
	.st2{fill:none;stroke:#0008C6;stroke-width:3;stroke-miterlimit:10;}
</style>
<g id="field">
	<path class="st0" d="M1.5,1.5v226c0,51,51.2,103.7,152.5,145c0.2-0.2,0.3-0.3,0.5-0.5c0.2,0.2,0.3,0.3,0.5,0.5
		c101.3-41.3,152.5-97,152.5-145V1.5H1.5z"/>
	<rect x="1.5" y="1.5" class="st1" width="306" height="93"/>
	<path class="st2" d="M1.5,1.5v226c0,51,51.2,103.7,152.5,145c0.2-0.2,0.3-0.3,0.5-0.5c0.2,0.2,0.3,0.3,0.5,0.5
		c101.3-41.3,152.5-97,152.5-145V1.5H1.5z"/>
</g>
<g id="laurals">
	<g>
		<path class="st0" d="M273.9,59.7c0.1-0.3,0.3-0.6,0.4-0.9c1.1-2.6,1.9-5.3,2.3-8c0.9-0.6,2.7-2.2,3.7-4.1c1.3-2.5,1.1-7,1.1-7
			s-2.4,2.2-3.8,4.7c-0.3,0.6-0.6,1.1-0.8,1.7c0-2.5-0.3-5.1-0.9-7.6l-0.3-1.2c-0.1-0.4-0.3-0.8-0.4-1.2c-0.1-0.3-0.2-0.5-0.3-0.8
			c0.6-0.8,1.6-2.4,1.9-4c0.5-2.4-1.4-5.6-1.4-5.6s-1.1,1.9-1.6,4.3c-0.1,0.8-0.2,1.5-0.2,2.1c-0.1-0.3-0.3-0.6-0.4-0.9
			c-0.1-0.2-0.2-0.4-0.3-0.6l-0.3-0.6c-0.2-0.4-0.4-0.8-0.6-1.1c-0.9-1.5-1.9-2.8-3-4.2c-0.2-0.3-0.5-0.5-0.7-0.8
			c0-0.1-0.1-0.3-0.1-0.4c0.2-0.7,0.6-2.5,0.2-4.1c-0.4-2-2.8-3.9-2.8-3.9s-0.2,1.8,0.2,3.8c0.4,1.8,1.1,3.1,1.6,3.8
			c-0.7-0.7-1.3-1.3-2.1-2c-0.6-0.9-2-2.5-3.7-3.5c-2.4-1.3-5.8-1.8-5.8-1.8s1.2,3,3.6,4.3c2.3,1.3,4.3,1.6,5.4,1.6
			c1.2,1.1,2.3,2.3,3.3,3.5c0.1,0.1,0.2,0.2,0.2,0.3c-0.1,0-0.1,0-0.2,0c-0.8-0.5-2.7-1.7-4.6-1.9c-2.5-0.2-5.6,0.9-5.6,0.9
			s2.1,2.5,4.6,2.7c2.9,0.2,5-0.7,5.7-1.2c0.2,0,0.4,0.1,0.5,0.1c0,0,0.1,0.1,0.1,0.1l0.4,0.5l0.4,0.5c0.2,0.3,0.5,0.7,0.7,1
			l0.6,1.1c0.2,0.4,0.4,0.7,0.6,1.1l0.3,0.5c0.1,0.2,0.2,0.4,0.3,0.6c0.2,0.4,0.4,0.7,0.5,1.1l0.5,1.1l0.1,0.3l0.1,0.3l0.2,0.6
			c0.1,0.4,0.3,0.8,0.4,1.2c0.1,0.4,0.2,0.8,0.3,1.2l0.1,0.4c-0.3-0.2-0.6-0.5-1-0.8c-0.3-0.9-1.2-2.8-2.6-4
			c-1.9-1.6-4.9-2.7-4.9-2.7s0.4,3.1,2.3,4.7c2.2,1.9,4.3,2.4,5.1,2.5c0.4,0.3,0.9,0.7,1.3,1.1c0.7,3.2,0.9,6.5,0.5,9.8
			c0,0.3-0.1,0.7-0.1,1c-0.2-0.2-0.3-0.5-0.5-0.7c-0.1-0.9-0.6-3.3-1.8-5c-1.5-2.2-4.3-4.2-4.3-4.2s-0.3,3.2,1.2,5.5
			c1.7,2.5,3.6,3.7,4.5,4.1c0.3,0.4,0.6,0.8,0.8,1.2c-0.4,2.7-1.2,5.3-2.4,7.8c-0.2,0.4-0.4,0.9-0.6,1.3c0.2-1.1,0.4-2.5,0.1-3.8
			c-0.6-2.8-2.5-5.8-2.5-5.8s-1.9,3-1.4,5.8c0.6,3.1,2,5,2.8,5.7c-2.2,3.7-5.1,6.9-8.6,9.5c0.1-0.4,0.3-1,0.3-1.7
			c0.8-1,2-2.9,2.3-4.8c0.3-2.9-1-6.6-1-6.6s-3.4,2.3-3.7,5.2c-0.5,4.5,1.6,7.3,1.7,7c0,0,0.1-0.1,0.1-0.2c-0.1,0.4-0.2,0.8-0.3,1.1
			l0.1,0c-0.1,0-0.1,0-0.1,0l0.1,0.2c-0.7,0.5-1.4,1-2.1,1.4c-1.4,0.9-2.8,1.6-4.3,2.3c-1.5,0.7-3,1.2-4.6,1.6
			c-0.3,0.1-0.7,0.2-1,0.3c0-0.1,0.1-0.3,0.2-0.4c0.1,0.1,0.1,0.1,0.1,0.1c0,0,4.1-2.1,5.4-5.2c1.3-3.1,1-7.7,1-7.7
			s-4.8,1.3-6.1,4.5c-1.4,3.4-1,6.4-0.6,7.7c-0.2,0.4-0.4,0.8-0.4,1.2c-0.3,0.1-0.5,0.1-0.8,0.2c-0.8,0.1-1.6,0.3-2.4,0.3l-0.6,0.1
			c-0.2,0-0.4,0-0.6,0c-0.4,0-0.8,0-1.2,0l-1.2,0c-0.4,0-0.8,0-1.2-0.1c-3-0.2-5.9-0.8-8.7-1.6c-0.1-0.2-0.1-0.3-0.2-0.5
			c0.4-1,1.2-4.3-0.4-8.2c-1.3-3.1-6.1-4.5-6.1-4.5s-0.4,4.6,0.9,7.7c1.1,2.7,4.2,4.6,5.2,5.1c0,0.1,0,0.1,0.1,0.2
			c-3.3-1-6.4-2.5-9.3-4.2c-0.7-0.4-1.4-0.9-2.1-1.4c-0.2-0.1-0.3-0.2-0.5-0.4c-0.1-0.4-0.1-0.7-0.2-1.2c0.6-0.8,1.8-3.3,1.4-6.8
			c-0.3-2.9-3.7-5.3-3.7-5.3s-1.3,3.7-1,6.6c0.3,2.4,2.2,4.8,2.8,5.5c0,0.2,0.1,0.5,0.1,0.7c-0.3-0.2-0.6-0.5-0.9-0.7
			c-0.7-0.5-1.3-1.1-1.9-1.6c-0.6-0.6-1.2-1.1-1.7-1.7c-0.6-0.6-1.1-1.2-1.6-1.9l-0.8-1c-0.3-0.3-0.5-0.7-0.7-1
			c-0.1-0.1-0.2-0.3-0.3-0.4c0.8-0.9,1.9-2.7,2.5-5.4c0.6-2.8-1.4-5.8-1.4-5.8s-2,3-2.6,5.8c-0.2,1-0.2,2,0,3
			c-0.3-0.5-0.5-0.9-0.7-1.4c-0.2-0.4-0.3-0.7-0.5-1.1c-0.2-0.4-0.3-0.8-0.4-1.1c-0.1-0.4-0.3-0.8-0.4-1.2l-0.3-1.2
			c-0.2-0.7-0.3-1.4-0.5-2.2c0.2-0.4,0.5-0.8,0.8-1.2c0.8-0.4,2.8-1.6,4.5-4.1c1.5-2.2,1.2-5.4,1.2-5.4s-2.8,2-4.3,4.2
			c-1.2,1.7-1.7,4.1-1.8,5c-0.2,0.3-0.4,0.5-0.5,0.8c-0.1-0.7-0.2-1.3-0.2-2c-0.2-2.9,0-5.9,0.6-8.8c0.4-0.4,0.9-0.8,1.4-1.2
			c0.8-0.1,2.9-0.6,5.1-2.5c1.9-1.6,2.3-4.7,2.3-4.7s-3,1-4.9,2.6c-1.4,1.2-2.3,3.1-2.7,4c-0.4,0.3-0.7,0.6-1,0.8c0-0.1,0-0.1,0-0.2
			l0.1-0.6l0.2-0.6c0.1-0.4,0.2-0.8,0.4-1.2c0.3-0.8,0.6-1.6,0.9-2.3c0.3-0.8,0.7-1.5,1.1-2.3c0.2-0.4,0.4-0.7,0.6-1.1l0.3-0.5
			l0.3-0.5c0.5-0.8,1.1-1.6,1.7-2.4c0.2,0,0.4-0.1,0.6-0.1c0.7,0.5,2.7,1.4,5.7,1.2c2.5-0.2,4.6-2.7,4.6-2.7s-3.1-1.1-5.6-0.9
			c-1.9,0.1-3.8,1.3-4.6,1.9c-0.1,0-0.2,0-0.3,0c1.1-1.4,2.3-2.6,3.6-3.8c1.1,0,3.1-0.4,5.5-1.6c2.4-1.3,3.6-4.3,3.6-4.3
			s-3.4,0.5-5.8,1.8c-1.7,0.9-3.1,2.6-3.7,3.5c-0.7,0.6-1.4,1.3-2.1,2c0.5-0.7,1.3-2,1.7-3.8c0.4-2,0.2-3.8,0.2-3.8
			s-2.3,1.8-2.8,3.9c-0.4,1.6,0.1,3.5,0.2,4.1c0,0.2-0.1,0.3-0.1,0.5c-2.2,2.4-4,5.2-5.4,8.1c0-0.7-0.1-1.4-0.2-2.3
			c-0.5-2.4-1.6-4.3-1.6-4.3s-1.9,3.1-1.4,5.6c0.3,1.6,1.3,3.2,1.9,4c-0.3,0.8-0.5,1.5-0.7,2.3c-0.8,2.8-1.1,5.7-1.1,8.6
			c-0.2-0.6-0.5-1.2-0.8-1.8c-1.3-2.5-3.7-4.7-3.7-4.7s-0.2,4.5,1.1,7c1,2,3,3.6,3.8,4.1c0.1,0.7,0.3,1.4,0.4,2.1l0.3,1.3
			c0.1,0.4,0.3,0.8,0.4,1.2c0.1,0.4,0.3,0.8,0.5,1.2c0.2,0.4,0.3,0.8,0.5,1.2c0.4,0.9,0.8,1.8,1.3,2.6c-0.8-0.8-1.6-1.4-2.5-1.8
			c-2.6-1-5.1-2.9-5.1-2.9s1,5.9,3.4,7c3.1,1.4,5.7,1.3,6.5,1.1l0.4,0.6c0.5,0.7,1.1,1.3,1.7,2c0.6,0.6,1.2,1.2,1.8,1.9
			c0.6,0.6,1.3,1.2,1.9,1.7c0.4,0.3,0.7,0.6,1.1,0.9c-0.1,0-0.3,0-0.4,0c-0.6-0.6-2.7-2.1-6-2.5c-2.8-0.4-5.3,0-5.3,0s2.8,3.6,5.6,4
			c2.1,0.3,4.5-0.5,5.5-0.9c0.5,0,0.9,0,1.3,0.1c0.1,0.1,0.2,0.1,0.2,0.2c0.7,0.5,1.4,1,2.1,1.4c0.7,0.5,1.5,0.9,2.2,1.3
			c0.1,0,0.2,0.1,0.2,0.1c-1.3-0.2-3-0.4-4.4,0.1c-3,1-5.9,3.9-5.9,3.9s3.8,2.4,6.8,1.5c3.5-1.1,5.3-3.4,5.9-4.4
			c0.7,0.3,1.4,0.6,2.2,0.9c0.8,0.3,1.6,0.6,2.4,0.9c0.8,0.3,1.6,0.5,2.5,0.7c0.4,0.1,0.8,0.2,1.3,0.3c0.2,0,0.4,0.1,0.6,0.1
			l0.6,0.1c0.3,0.1,0.6,0.1,1,0.2c-1.9,0.2-4.2,0.5-4.8,0.6c-1.1,0.2-4.4,0.8-5.6,1.8c-1.2,1-2.4,3.4-2.4,3.4s2.4-1.4,4-2.1
			s3.7-0.5,5.4-0.9c1.7-0.5,6.2-2.2,6.2-2.2v0c0.4,0,0.9,0.1,1.3,0.1c0.4,0,0.9,0.1,1.3,0.1l0.6,0c1.2,0.5,4.3,1.7,5.7,2.1
			c1.7,0.5,3.8,0.3,5.4,1c1.6,0.6,4,2.1,4,2.1s-1.1-2.4-2.3-3.4c-1.2-1-4.5-1.6-5.5-1.8c-0.3-0.1-1.2-0.2-2.3-0.3
			c0.3-0.1,0.7-0.1,1-0.2c0.9-0.2,1.7-0.3,2.5-0.6c1.8-0.5,3.5-1.1,5.2-1.9c0.9,1.1,2.6,2.5,5.1,3.4c3,1,6.8-1.5,6.8-1.5s-3-3-5.9-4
			c-0.5-0.2-1.1-0.3-1.7-0.3c1.3-0.8,2.6-1.8,3.8-2.8c1.1,0.4,3.2,1.1,5.1,0.8c2.8-0.4,5.6-3.9,5.6-3.9s-2.5-0.3-5.3,0
			c-1.1,0.1-2,0.4-2.8,0.7c1.5-1.6,2.9-3.2,4.1-5.1c1.2,0.1,3.4,0,5.9-1.2c2.4-1.1,3.4-7,3.4-7s-2.5,1.9-5.1,2.9
			C275,58.8,274.4,59.2,273.9,59.7z"/>
		<path class="st0" d="M187.1,60.1c0.1-0.3,0.3-0.6,0.4-0.9c1.1-2.6,1.9-5.3,2.3-8c0.9-0.6,2.7-2.2,3.7-4.1c1.3-2.5,1.1-7,1.1-7
			s-2.4,2.2-3.8,4.7c-0.3,0.6-0.6,1.1-0.8,1.7c0-2.5-0.3-5.1-0.9-7.6l-0.3-1.2c-0.1-0.4-0.3-0.8-0.4-1.2c-0.1-0.3-0.2-0.5-0.3-0.8
			c0.6-0.8,1.6-2.4,1.9-4c0.5-2.4-1.4-5.6-1.4-5.6s-1.1,1.9-1.6,4.3c-0.1,0.8-0.2,1.5-0.2,2.1c-0.1-0.3-0.3-0.6-0.4-0.9
			c-0.1-0.2-0.2-0.4-0.3-0.6l-0.3-0.6c-0.2-0.4-0.4-0.8-0.6-1.1c-0.9-1.5-1.9-2.8-3-4.2c-0.2-0.3-0.5-0.5-0.7-0.8
			c0-0.1-0.1-0.3-0.1-0.4c0.2-0.7,0.6-2.5,0.2-4.1c-0.4-2-2.8-3.9-2.8-3.9s-0.2,1.8,0.2,3.8c0.4,1.8,1.1,3.1,1.6,3.8
			c-0.7-0.7-1.3-1.3-2.1-2c-0.6-0.9-2-2.5-3.7-3.5c-2.4-1.3-5.8-1.8-5.8-1.8s1.2,3,3.6,4.3c2.3,1.3,4.3,1.6,5.4,1.6
			c1.2,1.1,2.3,2.3,3.3,3.5c0.1,0.1,0.2,0.2,0.2,0.3c-0.1,0-0.1,0-0.2,0c-0.8-0.5-2.7-1.7-4.6-1.9c-2.5-0.2-5.6,0.9-5.6,0.9
			s2.1,2.5,4.6,2.7c2.9,0.2,5-0.7,5.7-1.2c0.2,0,0.4,0.1,0.5,0.1c0,0,0.1,0.1,0.1,0.1l0.4,0.5l0.4,0.5c0.2,0.3,0.5,0.7,0.7,1
			l0.6,1.1c0.2,0.4,0.4,0.7,0.6,1.1l0.3,0.5c0.1,0.2,0.2,0.4,0.3,0.6c0.2,0.4,0.4,0.7,0.5,1.1l0.5,1.1l0.1,0.3l0.1,0.3l0.2,0.6
			c0.1,0.4,0.3,0.8,0.4,1.2c0.1,0.4,0.2,0.8,0.3,1.2l0.1,0.4c-0.3-0.2-0.6-0.5-1-0.8c-0.3-0.9-1.2-2.8-2.6-4
			c-1.9-1.6-4.9-2.7-4.9-2.7s0.4,3.1,2.3,4.7c2.2,1.9,4.3,2.4,5.1,2.5c0.4,0.3,0.9,0.7,1.3,1.1c0.7,3.2,0.9,6.5,0.5,9.8
			c0,0.3-0.1,0.7-0.1,1c-0.2-0.2-0.3-0.5-0.5-0.7c-0.1-0.9-0.6-3.3-1.8-5c-1.5-2.2-4.3-4.2-4.3-4.2s-0.3,3.2,1.2,5.5
			c1.7,2.5,3.6,3.7,4.5,4.1c0.3,0.4,0.6,0.8,0.8,1.2c-0.4,2.7-1.2,5.3-2.4,7.8c-0.2,0.4-0.4,0.9-0.6,1.3c0.2-1.1,0.4-2.5,0.1-3.8
			c-0.6-2.8-2.5-5.8-2.5-5.8s-1.9,3-1.4,5.8c0.6,3.1,2,5,2.8,5.7c-2.2,3.7-5.1,6.9-8.6,9.5c0.1-0.4,0.3-1,0.3-1.7
			c0.8-1,2-2.9,2.3-4.8c0.3-2.9-1-6.6-1-6.6s-3.4,2.3-3.7,5.2c-0.5,4.5,1.6,7.3,1.7,7c0,0,0.1-0.1,0.1-0.2c-0.1,0.4-0.2,0.8-0.3,1.1
			l0.1,0c-0.1,0-0.1,0-0.1,0l0.1,0.2c-0.7,0.5-1.4,1-2.1,1.4c-1.4,0.9-2.8,1.6-4.3,2.3c-1.5,0.7-3,1.2-4.6,1.6
			c-0.3,0.1-0.7,0.2-1,0.3c0-0.1,0.1-0.3,0.2-0.4c0.1,0.1,0.1,0.1,0.1,0.1c0,0,4.1-2.1,5.4-5.2c1.3-3.1,1-7.7,1-7.7
			s-4.8,1.3-6.1,4.5c-1.4,3.4-1,6.4-0.6,7.7c-0.2,0.4-0.4,0.8-0.4,1.2c-0.3,0.1-0.5,0.1-0.8,0.2c-0.8,0.1-1.6,0.3-2.4,0.3l-0.6,0.1
			c-0.2,0-0.4,0-0.6,0c-0.4,0-0.8,0-1.2,0l-1.2,0c-0.4,0-0.8,0-1.2-0.1c-3-0.2-5.9-0.8-8.7-1.6c-0.1-0.2-0.1-0.3-0.2-0.5
			c0.4-1,1.2-4.3-0.4-8.2c-1.3-3.1-6.1-4.5-6.1-4.5s-0.4,4.6,0.9,7.7c1.1,2.7,4.2,4.6,5.2,5.1c0,0.1,0,0.1,0.1,0.2
			c-3.3-1-6.4-2.5-9.3-4.2c-0.7-0.4-1.4-0.9-2.1-1.4c-0.2-0.1-0.3-0.2-0.5-0.4c-0.1-0.4-0.1-0.7-0.2-1.2c0.6-0.8,1.8-3.3,1.4-6.8
			c-0.3-2.9-3.7-5.3-3.7-5.3s-1.3,3.7-1,6.6c0.3,2.4,2.2,4.8,2.8,5.5c0,0.2,0.1,0.5,0.1,0.7c-0.3-0.2-0.6-0.5-0.9-0.7
			c-0.7-0.5-1.3-1.1-1.9-1.6c-0.6-0.6-1.2-1.1-1.7-1.7c-0.6-0.6-1.1-1.2-1.6-1.9l-0.8-1c-0.3-0.3-0.5-0.7-0.7-1
			c-0.1-0.1-0.2-0.3-0.3-0.4c0.8-0.9,1.9-2.7,2.5-5.4c0.6-2.8-1.4-5.8-1.4-5.8s-2,3-2.6,5.8c-0.2,1-0.2,2,0,3
			c-0.3-0.5-0.5-0.9-0.7-1.4c-0.2-0.4-0.3-0.7-0.5-1.1c-0.2-0.4-0.3-0.8-0.4-1.1c-0.1-0.4-0.3-0.8-0.4-1.2l-0.3-1.2
			c-0.2-0.7-0.3-1.4-0.5-2.2c0.2-0.4,0.5-0.8,0.8-1.2c0.8-0.4,2.8-1.6,4.5-4.1c1.5-2.2,1.2-5.4,1.2-5.4s-2.8,2-4.3,4.2
			c-1.2,1.7-1.7,4.1-1.8,5c-0.2,0.3-0.4,0.5-0.5,0.8c-0.1-0.7-0.2-1.3-0.2-2c-0.2-2.9,0-5.9,0.6-8.8c0.4-0.4,0.9-0.8,1.4-1.2
			c0.8-0.1,2.9-0.6,5.1-2.5c1.9-1.6,2.3-4.7,2.3-4.7s-3,1-4.9,2.6c-1.4,1.2-2.3,3.1-2.7,4c-0.4,0.3-0.7,0.6-1,0.8c0-0.1,0-0.1,0-0.2
			l0.1-0.6l0.2-0.6c0.1-0.4,0.2-0.8,0.4-1.2c0.3-0.8,0.6-1.6,0.9-2.3c0.3-0.8,0.7-1.5,1.1-2.3c0.2-0.4,0.4-0.7,0.6-1.1l0.3-0.5
			l0.3-0.5c0.5-0.8,1.1-1.6,1.7-2.4c0.2,0,0.4-0.1,0.6-0.1c0.7,0.5,2.7,1.4,5.7,1.2c2.5-0.2,4.6-2.7,4.6-2.7s-3.1-1.1-5.6-0.9
			c-1.9,0.1-3.8,1.3-4.6,1.9c-0.1,0-0.2,0-0.3,0c1.1-1.4,2.3-2.6,3.6-3.8c1.1,0,3.1-0.4,5.5-1.6c2.4-1.3,3.6-4.3,3.6-4.3
			s-3.4,0.5-5.8,1.8c-1.7,0.9-3.1,2.6-3.7,3.5c-0.7,0.6-1.4,1.3-2.1,2c0.5-0.7,1.3-2,1.7-3.8c0.4-2,0.2-3.8,0.2-3.8
			s-2.3,1.8-2.8,3.9c-0.4,1.6,0.1,3.5,0.2,4.1c0,0.2-0.1,0.3-0.1,0.5c-2.2,2.4-4,5.2-5.4,8.1c0-0.7-0.1-1.4-0.2-2.3
			c-0.5-2.4-1.6-4.3-1.6-4.3s-1.9,3.1-1.4,5.6c0.3,1.6,1.3,3.2,1.9,4c-0.3,0.8-0.5,1.5-0.7,2.3c-0.8,2.8-1.1,5.7-1.1,8.6
			c-0.2-0.6-0.5-1.2-0.8-1.8c-1.3-2.5-3.7-4.7-3.7-4.7s-0.2,4.5,1.1,7c1,2,3,3.6,3.8,4.1c0.1,0.7,0.3,1.4,0.4,2.1l0.3,1.3
			c0.1,0.4,0.3,0.8,0.4,1.2c0.1,0.4,0.3,0.8,0.5,1.2c0.2,0.4,0.3,0.8,0.5,1.2c0.4,0.9,0.8,1.8,1.3,2.6c-0.8-0.8-1.6-1.4-2.5-1.8
			c-2.6-1-5.1-2.9-5.1-2.9s1,5.9,3.4,7c3.1,1.4,5.7,1.3,6.5,1.1l0.4,0.6c0.5,0.7,1.1,1.3,1.7,2c0.6,0.6,1.2,1.2,1.8,1.9
			c0.6,0.6,1.3,1.2,1.9,1.7c0.4,0.3,0.7,0.6,1.1,0.9c-0.1,0-0.3,0-0.4,0c-0.6-0.6-2.7-2.1-6-2.5c-2.8-0.4-5.3,0-5.3,0s2.8,3.6,5.6,4
			c2.1,0.3,4.5-0.5,5.5-0.9c0.5,0,0.9,0,1.3,0.1c0.1,0.1,0.2,0.1,0.2,0.2c0.7,0.5,1.4,1,2.1,1.4c0.7,0.5,1.5,0.9,2.2,1.3
			c0.1,0,0.2,0.1,0.2,0.1c-1.3-0.2-3-0.4-4.4,0.1c-3,1-5.9,3.9-5.9,3.9s3.8,2.4,6.8,1.5c3.5-1.1,5.3-3.4,5.9-4.4
			c0.7,0.3,1.4,0.6,2.2,0.9c0.8,0.3,1.6,0.6,2.4,0.9c0.8,0.3,1.6,0.5,2.5,0.7c0.4,0.1,0.8,0.2,1.3,0.3c0.2,0,0.4,0.1,0.6,0.1
			l0.6,0.1c0.3,0.1,0.6,0.1,1,0.2c-1.9,0.2-4.2,0.5-4.8,0.6c-1.1,0.2-4.4,0.8-5.6,1.8c-1.2,1-2.4,3.4-2.4,3.4s2.4-1.4,4-2.1
			c1.6-0.6,3.7-0.5,5.4-0.9s6.2-2.2,6.2-2.2v0c0.4,0,0.9,0.1,1.3,0.1c0.4,0,0.9,0.1,1.3,0.1l0.6,0c1.2,0.5,4.3,1.7,5.7,2.1
			c1.7,0.5,3.8,0.3,5.4,1c1.6,0.6,4,2.1,4,2.1s-1.1-2.4-2.3-3.4c-1.2-1-4.5-1.6-5.5-1.8c-0.3-0.1-1.2-0.2-2.3-0.3
			c0.3-0.1,0.7-0.1,1-0.2c0.9-0.2,1.7-0.3,2.5-0.6c1.8-0.5,3.5-1.1,5.2-1.9c0.9,1.1,2.6,2.5,5.1,3.4c3,1,6.8-1.5,6.8-1.5s-3-3-5.9-4
			c-0.5-0.2-1.1-0.3-1.7-0.3c1.3-0.8,2.6-1.8,3.8-2.8c1.1,0.4,3.2,1.1,5.1,0.8c2.8-0.4,5.6-3.9,5.6-3.9s-2.5-0.3-5.3,0
			c-1.1,0.1-2,0.4-2.8,0.7c1.5-1.6,2.9-3.2,4.1-5.1c1.2,0.1,3.4,0,5.9-1.2c2.4-1.1,3.4-7,3.4-7s-2.5,1.9-5.1,2.9
			C188.2,59.2,187.6,59.6,187.1,60.1z"/>
		<path class="st0" d="M100.3,60.1c0.1-0.3,0.3-0.6,0.4-0.9c1.1-2.6,1.9-5.3,2.3-8c0.9-0.6,2.7-2.2,3.7-4.1c1.3-2.5,1.1-7,1.1-7
			s-2.4,2.2-3.8,4.7c-0.3,0.6-0.6,1.1-0.8,1.7c0-2.5-0.3-5.1-0.9-7.6l-0.3-1.2c-0.1-0.4-0.3-0.8-0.4-1.2c-0.1-0.3-0.2-0.5-0.3-0.8
			c0.6-0.8,1.6-2.4,1.9-4c0.5-2.4-1.4-5.6-1.4-5.6s-1.1,1.9-1.6,4.3c-0.1,0.8-0.2,1.5-0.2,2.1c-0.1-0.3-0.3-0.6-0.4-0.9
			c-0.1-0.2-0.2-0.4-0.3-0.6l-0.3-0.6c-0.2-0.4-0.4-0.8-0.6-1.1c-0.9-1.5-1.9-2.8-3-4.2c-0.2-0.3-0.5-0.5-0.7-0.8
			c0-0.1-0.1-0.3-0.1-0.4c0.2-0.7,0.6-2.5,0.2-4.1c-0.4-2-2.8-3.9-2.8-3.9s-0.2,1.8,0.2,3.8c0.4,1.8,1.1,3.1,1.6,3.8
			c-0.7-0.7-1.3-1.3-2.1-2c-0.6-0.9-2-2.5-3.7-3.5c-2.4-1.3-5.8-1.8-5.8-1.8s1.2,3,3.6,4.3c2.3,1.3,4.3,1.6,5.4,1.6
			c1.2,1.1,2.3,2.3,3.3,3.5c0.1,0.1,0.2,0.2,0.2,0.3c-0.1,0-0.1,0-0.2,0c-0.8-0.5-2.7-1.7-4.6-1.9c-2.5-0.2-5.6,0.9-5.6,0.9
			s2.1,2.5,4.6,2.7c2.9,0.2,5-0.7,5.7-1.2c0.2,0,0.4,0.1,0.5,0.1c0,0,0.1,0.1,0.1,0.1l0.4,0.5l0.4,0.5c0.2,0.3,0.5,0.7,0.7,1
			l0.6,1.1c0.2,0.4,0.4,0.7,0.6,1.1l0.3,0.5c0.1,0.2,0.2,0.4,0.3,0.6c0.2,0.4,0.4,0.7,0.5,1.1l0.5,1.1l0.1,0.3l0.1,0.3l0.2,0.6
			c0.1,0.4,0.3,0.8,0.4,1.2c0.1,0.4,0.2,0.8,0.3,1.2l0.1,0.4c-0.3-0.2-0.6-0.5-1-0.8c-0.3-0.9-1.2-2.8-2.6-4
			C95.7,32,92.7,31,92.7,31s0.4,3.1,2.3,4.7c2.2,1.9,4.3,2.4,5.1,2.5c0.4,0.3,0.9,0.7,1.3,1.1c0.7,3.2,0.9,6.5,0.5,9.8
			c0,0.3-0.1,0.7-0.1,1c-0.2-0.2-0.3-0.5-0.5-0.7c-0.1-0.9-0.6-3.3-1.8-5C98,42,95.2,40,95.2,40s-0.3,3.2,1.2,5.5
			c1.7,2.5,3.6,3.7,4.5,4.1c0.3,0.4,0.6,0.8,0.8,1.2c-0.4,2.7-1.2,5.3-2.4,7.8c-0.2,0.4-0.4,0.9-0.6,1.3c0.2-1.1,0.4-2.5,0.1-3.8
			c-0.6-2.8-2.5-5.8-2.5-5.8s-1.9,3-1.4,5.8c0.6,3.1,2,5,2.8,5.7c-2.2,3.7-5.1,6.9-8.6,9.5c0.1-0.4,0.3-1,0.3-1.7
			c0.8-1,2-2.9,2.3-4.8c0.3-2.9-1-6.6-1-6.6s-3.4,2.3-3.7,5.2c-0.5,4.5,1.6,7.3,1.7,7c0,0,0.1-0.1,0.1-0.2c-0.1,0.4-0.2,0.8-0.3,1.1
			l0.1,0c-0.1,0-0.1,0-0.1,0l0.1,0.2c-0.7,0.5-1.4,1-2.1,1.4c-1.4,0.9-2.8,1.6-4.3,2.3c-1.5,0.7-3,1.2-4.6,1.6
			c-0.3,0.1-0.7,0.2-1,0.3c0-0.1,0.1-0.3,0.2-0.4c0.1,0.1,0.1,0.1,0.1,0.1c0,0,4.1-2.1,5.4-5.2c1.3-3.1,1-7.7,1-7.7
			s-4.8,1.3-6.1,4.5c-1.4,3.4-1,6.4-0.6,7.7c-0.2,0.4-0.4,0.8-0.4,1.2c-0.3,0.1-0.5,0.1-0.8,0.2c-0.8,0.1-1.6,0.3-2.4,0.3l-0.6,0.1
			c-0.2,0-0.4,0-0.6,0c-0.4,0-0.8,0-1.2,0l-1.2,0c-0.4,0-0.8,0-1.2-0.1c-3-0.2-5.9-0.8-8.7-1.6c-0.1-0.2-0.1-0.3-0.2-0.5
			c0.4-1,1.2-4.3-0.4-8.2c-1.3-3.1-6.1-4.5-6.1-4.5s-0.4,4.6,0.9,7.7c1.1,2.7,4.2,4.6,5.2,5.1c0,0.1,0,0.1,0.1,0.2
			c-3.3-1-6.4-2.5-9.3-4.2c-0.7-0.4-1.4-0.9-2.1-1.4c-0.2-0.1-0.3-0.2-0.5-0.4c-0.1-0.4-0.1-0.7-0.2-1.2c0.6-0.8,1.8-3.3,1.4-6.8
			c-0.3-2.9-3.7-5.3-3.7-5.3s-1.3,3.7-1,6.6c0.3,2.4,2.2,4.8,2.8,5.5c0,0.2,0.1,0.5,0.1,0.7c-0.3-0.2-0.6-0.5-0.9-0.7
			c-0.7-0.5-1.3-1.1-1.9-1.6c-0.6-0.6-1.2-1.1-1.7-1.7c-0.6-0.6-1.1-1.2-1.6-1.9l-0.8-1c-0.3-0.3-0.5-0.7-0.7-1
			c-0.1-0.1-0.2-0.3-0.3-0.4c0.8-0.9,1.9-2.7,2.5-5.4c0.6-2.8-1.4-5.8-1.4-5.8s-2,3-2.6,5.8c-0.2,1-0.2,2,0,3
			c-0.3-0.5-0.5-0.9-0.7-1.4c-0.2-0.4-0.3-0.7-0.5-1.1c-0.2-0.4-0.3-0.8-0.4-1.1c-0.1-0.4-0.3-0.8-0.4-1.2l-0.3-1.2
			c-0.2-0.7-0.3-1.4-0.5-2.2c0.2-0.4,0.5-0.8,0.8-1.2c0.8-0.4,2.8-1.6,4.5-4.1c1.5-2.2,1.2-5.4,1.2-5.4s-2.8,2-4.3,4.2
			c-1.2,1.7-1.7,4.1-1.8,5c-0.2,0.3-0.4,0.5-0.5,0.8c-0.1-0.7-0.2-1.3-0.2-2c-0.2-2.9,0-5.9,0.6-8.8c0.4-0.4,0.9-0.8,1.4-1.2
			c0.8-0.1,2.9-0.6,5.1-2.5c1.9-1.6,2.3-4.7,2.3-4.7s-3,1-4.9,2.6c-1.4,1.2-2.3,3.1-2.7,4c-0.4,0.3-0.7,0.6-1,0.8c0-0.1,0-0.1,0-0.2
			l0.1-0.6l0.2-0.6c0.1-0.4,0.2-0.8,0.4-1.2c0.3-0.8,0.6-1.6,0.9-2.3c0.3-0.8,0.7-1.5,1.1-2.3c0.2-0.4,0.4-0.7,0.6-1.1l0.3-0.5
			l0.3-0.5c0.5-0.8,1.1-1.6,1.7-2.4c0.2,0,0.4-0.1,0.6-0.1c0.7,0.5,2.7,1.4,5.7,1.2c2.5-0.2,4.6-2.7,4.6-2.7s-3.1-1.1-5.6-0.9
			c-1.9,0.1-3.8,1.3-4.6,1.9c-0.1,0-0.2,0-0.3,0c1.1-1.4,2.3-2.6,3.6-3.8c1.1,0,3.1-0.4,5.5-1.6c2.4-1.3,3.6-4.3,3.6-4.3
			s-3.4,0.5-5.8,1.8c-1.7,0.9-3.1,2.6-3.7,3.5c-0.7,0.6-1.4,1.3-2.1,2c0.5-0.7,1.3-2,1.7-3.8c0.4-2,0.2-3.8,0.2-3.8
			s-2.3,1.8-2.8,3.9c-0.4,1.6,0.1,3.5,0.2,4.1c0,0.2-0.1,0.3-0.1,0.5c-2.2,2.4-4,5.2-5.4,8.1c0-0.7-0.1-1.4-0.2-2.3
			c-0.5-2.4-1.6-4.3-1.6-4.3s-1.9,3.1-1.4,5.6c0.3,1.6,1.3,3.2,1.9,4c-0.3,0.8-0.5,1.5-0.7,2.3c-0.8,2.8-1.1,5.7-1.1,8.6
			c-0.2-0.6-0.5-1.2-0.8-1.8c-1.3-2.5-3.7-4.7-3.7-4.7s-0.2,4.5,1.1,7c1,2,3,3.6,3.8,4.1c0.1,0.7,0.3,1.4,0.4,2.1l0.3,1.3
			c0.1,0.4,0.3,0.8,0.4,1.2c0.1,0.4,0.3,0.8,0.5,1.2c0.2,0.4,0.3,0.8,0.5,1.2c0.4,0.9,0.8,1.8,1.3,2.6c-0.8-0.8-1.6-1.4-2.5-1.8
			c-2.6-1-5.1-2.9-5.1-2.9s1,5.9,3.4,7c3.1,1.4,5.7,1.3,6.5,1.1l0.4,0.6c0.5,0.7,1.1,1.3,1.7,2c0.6,0.6,1.2,1.2,1.8,1.9
			c0.6,0.6,1.3,1.2,1.9,1.7c0.4,0.3,0.7,0.6,1.1,0.9c-0.1,0-0.3,0-0.4,0c-0.6-0.6-2.7-2.1-6-2.5c-2.8-0.4-5.3,0-5.3,0s2.8,3.6,5.6,4
			c2.1,0.3,4.5-0.5,5.5-0.9c0.5,0,0.9,0,1.3,0.1c0.1,0.1,0.2,0.1,0.2,0.2c0.7,0.5,1.4,1,2.1,1.4c0.7,0.5,1.5,0.9,2.2,1.3
			c0.1,0,0.2,0.1,0.2,0.1c-1.3-0.2-3-0.4-4.4,0.1c-3,1-5.9,3.9-5.9,3.9s3.8,2.4,6.8,1.5c3.5-1.1,5.3-3.4,5.9-4.4
			c0.7,0.3,1.4,0.6,2.2,0.9c0.8,0.3,1.6,0.6,2.4,0.9c0.8,0.3,1.6,0.5,2.5,0.7c0.4,0.1,0.8,0.2,1.3,0.3c0.2,0,0.4,0.1,0.6,0.1
			l0.6,0.1c0.3,0.1,0.6,0.1,1,0.2c-1.9,0.2-4.2,0.5-4.8,0.6c-1.1,0.2-4.4,0.8-5.6,1.8c-1.2,1-2.4,3.4-2.4,3.4s2.4-1.4,4-2.1
			c1.6-0.6,3.7-0.5,5.4-0.9c1.7-0.5,6.2-2.2,6.2-2.2v0c0.4,0,0.9,0.1,1.3,0.1c0.4,0,0.9,0.1,1.3,0.1l0.6,0c1.2,0.5,4.3,1.7,5.7,2.1
			c1.7,0.5,3.8,0.3,5.4,1c1.6,0.6,4,2.1,4,2.1s-1.1-2.4-2.3-3.4c-1.2-1-4.5-1.6-5.5-1.8c-0.3-0.1-1.2-0.2-2.3-0.3
			c0.3-0.1,0.7-0.1,1-0.2c0.9-0.2,1.7-0.3,2.5-0.6c1.8-0.5,3.5-1.1,5.2-1.9c0.9,1.1,2.6,2.5,5.1,3.4c3,1,6.8-1.5,6.8-1.5s-3-3-5.9-4
			c-0.5-0.2-1.1-0.3-1.7-0.3c1.3-0.8,2.6-1.8,3.8-2.8c1.1,0.4,3.2,1.1,5.1,0.8c2.8-0.4,5.6-3.9,5.6-3.9s-2.5-0.3-5.3,0
			c-1.1,0.1-2,0.4-2.8,0.7c1.5-1.6,2.9-3.2,4.1-5.1c1.2,0.1,3.4,0,5.9-1.2c2.4-1.1,3.4-7,3.4-7s-2.5,1.9-5.1,2.9
			C101.4,59.2,100.9,59.6,100.3,60.1z"/>
	</g>
</g>
<g id="bull">
	<path class="st1" d="M71.3,266c-1.4-0.8-4.6-0.1-6.2-0.3c-0.7-0.1-1.5-0.3-2.3-0.4c-0.8,1.7-1.9,3.4-2.5,4.6
		c-0.2,0.3-1.4,2.6-1.5,2.9c3.1,2.5,6.8,1.6,10.8,1c0.6-1.3,1.2-2.5,1.7-3.5c0.3-0.7,1.3-2.5,1-3.3C72.1,266,72.1,266.4,71.3,266z"
		/>
	<path class="st1" d="M57.5,274.7c-1.3,1.9-2,2.5-3.5,3.5c2.4,1.1,7.1,3,9.5,3.2c1.1,0.1,2.5-1.6,3.9-3.7
		C63.9,277.4,60.1,277,57.5,274.7z"/>
	<path class="st1" d="M109.2,303.8c-3.2,0.3-11.4-0.8-11-5.1c0-0.1,0-0.2,0.1-0.3c-0.7,0.4-1.4,0.8-1.8,1.1c-4.4,3.5-8.3,7.3-8,13
		c1.1,0.5,2.5,1,3.9,1.3c0.1-1.1,0.6-2,1.3-3.1c0.9-1.2,2.8-3.3,4.5-3.1c0.2,1.3-0.9,2.9-1.3,4.2c-0.3,0.9-0.5,1.9-0.7,2.9
		c3.6,0.8,6.4,0.8,9.2-0.2c0.9-0.3,1.7-3.7,2-6c0.2-1.3,1.1-3.1,2.2-4.7C109.5,303.8,109.3,303.8,109.2,303.8z"/>
	<path class="st1" d="M177.7,300.9c-0.6,0-1.1-0.1-1.5-0.2c-2.7-0.7-7.6-1.8-8.8-4.8c-0.2,0.1-0.4,0.2-0.6,0.4
		c-3.8,2.6-7.9,6.8-9.2,11.5c-0.7,2.4,0,3.7,1.5,4.5c0.4-2.2,1.3-4.5,3.1-6.2c0.7-0.7,2.9-3.5,3-1.2c0.1,1.9-1.6,4.2-2,6.1
		c-0.2,0.8-0.2,1.6-0.2,2.4c3.9,0.5,9.2,0.5,12.8-1.2C179.2,310.5,177.1,304.7,177.7,300.9z"/>
	<path class="st1" d="M258,297.5c-1.5-1.1-3.3-1.6-5.1-2.1c-2-0.6-3.8-0.7-5.9-0.7c-0.4,0-0.9,0-1.4,0c-3,3.8-6.3,9.5-6.1,12.7
		c1.8,0.8,3.6,1.3,5.4,1.6c0.2-3.3,1.2-5.9,3.9-8c2.5-1.8,2.3-0.5,1.3,1.9c-0.7,1.6-1.1,3.3-1.3,5c0,0.4-0.1,0.8-0.1,1.3
		c1.8-0.1,3.5-0.3,5.4-0.7c3.6-0.8,3.9-0.3,4.7-3.3c0.4-1.5,0.5-4.1,0.8-6.4C259.1,298.2,258.5,297.8,258,297.5z"/>
	<path class="st1" d="M262.9,279.5c-1.9-7.2,0.4-16.8,1.8-23.8c0.4-2.1,1.7-5.1,0.6-7.2c-1.9-4-7.9-2-11.8-1c-4,1-12.4-1.7-12-11
		c0.2-5.4-0.6-13.6,0-19c0.6-4.7,1.3-11.3,0-16c-1.2-4.3-3.1-8.9-5.4-13.4c1.2-1.9,3-3.5,4.6-4.9c2.2-2,5.1-4.3,7.4-6.2
		c1.9-1.5,8-8,8-12c0-7-4.1-15.7-6.2-17.8c-2.7-2.8-5.9-5-9.3-6.5c-8.8-3.9-17.5-6-27-6.8c-9.5-0.8-21.6-0.2-31-2.3
		c-4.2-0.9-14-5-12-11c1.5-4.5,5.8-8.2,11-9c3.1-0.5,8-0.2,11.1,0c2.1,0.1,4.4,0.5,7.9,1c-1,5.7-1.7,7.9,3,11c3,2,5.6,0,10,0
		c4,0,7.4,0,10,0c1,0,7,1,8,1c-0.7-0.9-1.8-2.7-2.6-3.6c-3.1-3.7-7.6-7.2-11.6-9.9c-2-1.3-6.3-5-10.3-5s-4.4,3.9-5.5,3.5
		c-1.5-0.5-4.8-1.4-6.5-1.5c-5.5-0.5-8.5-0.5-11.5-0.5c-3.9,0-10.3,2.2-13,5c-2.8,3-5.2,6.9-5.2,10.8c0,3.6,2.1,5.9,5.2,8.2
		c4.1,3,11.3,6.6,22.3,6c2.7-0.1,11.4,0.7,13.7,1c8,1,13,2,21.3,4c4,1,16.8,7.6,18.7,11c1.8,3.3,4.5,9.1,2.5,12.8
		c-2,3.8-5.6,6.7-9.7,8.2c-2.6,1-5.3,1.7-8.1,2c-0.7,0.1-1.8,0.2-2.9,0.3c-0.5-0.6-1-1.1-1.6-1.6c-3.3-3.2-7.7-7.5-12.4-8.5
		c-5.7-1.2-10.1-1.8-15.9-2c-12.1-0.4-16.1,4.8-40.3,4c-3.7-0.1-8.2-0.2-11.7-1.2c-3.2-0.9-13-9-15-12c-7.5-11.3-11.5-17.1-23-24
		c-10-6-15.8-7.2-27.4-6.8c-1,0-2,0.1-2.9,0.3c-1.8-1.3-3.5-2.8-4.9-4.3c-3.3-3.7-8.1-9.6-7.9-14.8c-1,3.4-1.7,6-1.3,9.7
		c0.3,2.8,0.8,5.3,1.5,7.9c0.7,0.8,1.4,1.8,1.9,2.4c1.4,1.5,2.7,3,4.4,4.3c1.5,1.3,4.1,2.3,5.1,4c-2.4,0.1-5.4-0.2-7.6-1.3
		c-1.6-0.9-6.2-5.4-5.6-7.5c-1.1-1-2.1-2-3.1-3c-2.6-2.7-3.7-7.8-4.7-11.4c-2.4,2.1-2,11.5-1,14c0.9,2.4,1.9,4.1,2.8,5.6
		c-1.6,1.1-3.5,2.3-4.3,2.9c-5.9,3.9-0.7,4.6-5,10c-1.9,2.4-10.1,9.1-12,10c-2,1-3,3-2,5c0.4,0.8,0.7,1.9,1,2.9
		c3.5-2.4,2.2-7.3,5.3-4.6c0.8,0.7,1.1,1.7,1.2,2.7c0.1,1.8-0.6,2.2-2,3.3c-1.1,0.9-2.2,1.5-3.4,2c0.3,0.9,0.8,1.6,1.3,1.9
		c2.1,1.3,5.3-0.9,7.2,1.2c1.4,1.5,0.8,5.3,4.4,4.6c1.1-2.6,1.6-5.9,5-6c2.2,0,7,3,7,4c-0.6,15.3-0.3,32,6.3,45.7c0,0,0,0,0,0
		c0.3,0.5,0.6,0.9,0.8,1.1c2.2,2.3,4.4,4.7,6.7,6.9c1.6,1.5,5.4,4,7.2,5.4c0.7,0.6-1.9,0.5-2.8,0.2c-2.3-0.6-4.4-1.4-6.5-3.2
		c-2.9-2.4-5.5-5-8-7.7c-1,1-2,2-2.7,2.7c-5,5-6.8,8.8-11,13c-0.1,0.1-0.3,0.3-0.5,0.4c-0.2,0.3-0.6,0.8-0.9,1.2
		c-1.2,2.7-1.9,5.6-3,8.3c-1.1,2.8-2.1-0.5-2.2-2.2c-0.1-1.6,0-3.2,0.2-4.8c-0.7,0.2-1.4,0.5-2,0.8c-1.8,1-2.4,2.9-2.7,4.9
		c-0.5,3.9,1.2,9.4,1,13.3c-0.2,4.1-1.5,7.8,0.7,11.3c2.1,3.3,4.5,5.9,7.5,8c1.2-1,2.8-2,3.4-2.6c2.3-2.2,3.4-4.6,4.7-7.5
		c0.2-0.5,0.5-0.9,0.7-1.4c-0.1-1.9,0.6-3.8-0.7-5.3c-0.9-1.1-2.1-2-2.7-3.4c-0.4-1-1.5-4.2-1-5c0.3-0.5,1.7-0.7,2.2-0.9
		c2-0.9,3.7-2.5,5.5-3.7c3.3-2.3,7-3.9,10.2-6.4c1.5-1.1,2.8-1.6,4.4-2.1c1.3-0.4,2.2-0.7,3.5-0.2c2.3,1,3.8,3.3,6.2,4.3
		c3.2,1.3,4.8,2.7,6.3-1.1c-2.5-0.9-7.1-9.5,0-4c2,2,3.3,3.4,5,3.8c0,7.3,0.3,14.3,1.8,21.6c0.2,1.1,2,2.2,2.2,2.6
		c0.7,1.8,1.1,4.2,1,6c-0.2,5-0.8,22.1-1,25c0,0.4-0.3,0.8-0.6,1.2c0,0.6-0.1,1.3,0.4,1.9c1,1.2,3.4,1.6,5,1.7
		c2.7,0.2,5-0.3,7.5-0.8c1-0.5,1.5-0.4,1.8-3c0.2-2-1.9-2-2-4c-0.2-3.5,1.2-19.3,1-23c-0.1-1.3,1.1-3,2-4c1.8-2.1,1.9-4.8,2.2-7.4
		c0.5-4.9,1.6-9.7,2.3-14.5c1-4.6,2.2-4.7,3.6-6.5c2.4-3,2.5-4.9,3.7-8.2c2.6-7.1,7.9-12.9,6.3-21.5c-0.5-2.7-2.2-6.1-3.8-8.5
		c-0.2-0.2-1.9-3.8,2.1,0.2s5.8,13.2,5,19c-0.5,3.5-3.4,5.4-4.7,8.6c-1.5,3.4-0.9,6.9-1.3,10.7c0,0.2,0,0.4-0.1,0.5
		c3.5-1.9,7-4,10.1-6.2c3.9-2.7,5.2-5.3,9.8-6c4.9-0.7,9.8-1.2,14.7-1.7c3.5-0.4,7.1-0.7,10.6-0.9c5-1.3,9.6-1.9,10.7-1.8
		c1.8,0.1,8.7,1.3,10.5,1.7c2.1,0.5,3.9,1.4,5.8,2.2c-1.9-1.8-3.7-3.8-5.4-5.8c-1.4-1.7-3-3.3-4.4-5c-0.9-1-2.3-2.2-2.9-3.4
		c2.7,2.3,4.2,2.3,7,4.5c3.3,2.5,8.1,7,11,10c1.3,1.3,2.3,2.9,3.4,4.4c0.2,0.3,0.5,2.3,0.6,4.1c1.2,2.7,1.9,5.7,2.5,8.7
		c1.8,9.8,9.8,14.9,19.5,16.8c5.1,1,10,3.8,15,5c2,1,2,13,1.2,18.4c-0.6,4.1-4.5,3.9-3.2,8.6c-0.1,0.1-0.2,0.2-0.4,0.4
		c2.3,0,4.6-0.1,6.8,0.4c2.3,0.5,4.1,1.6,6,2.5c1.5-1.8,3.8-0.9,4.9-3.7C267.6,287,263.8,283.2,262.9,279.5z M208.1,117
		c1.4-0.1,2.9,0.3,4.4,0.6c3,0.6,3.9,1.2,7,2c-4.1-0.1-5.3-0.3-8,0c-1.3,0.1-3.4,0.4-4.4-0.4C206.4,118.6,206.6,116.8,208.1,117z
		 M57.5,150.7c-1.4-0.1-2.4-0.8-3.8-0.7c-1.7,0.2-2.6,2.2-4,2.3c-0.2-1.3,0.3-2.4,0.5-2.5c2.1-1.4,3.2-4.1,4-6.5
		c0.5-1.3,1-4.4,2.6-4.9c1.1-0.4,3.4,0.8,4.6,0.8c2.3,0.1,3.9-0.5,6-1c1.7-0.4,1.5,0.1,1.5,2c0,2.9-0.3,5-2.3,7.2
		C64.2,150,60.9,150.8,57.5,150.7z M77.4,165.4c-2.3,4.4-6.2,5.9-10.7,4.2c3.4-0.7,7.1-3.3,8.6-6.2c1.8-3.6,1.2-9.1,1.7-13
		C79.4,155.1,79.7,160.9,77.4,165.4z M93.8,225c-2.3,2.5-5.8,1.1-8.3-1.5c-1.3-1.4-4.4-4-6-8c-2-5,3.2,0.2,4,1c1.9,2,3.1,3.1,4,4
		c1.2,1.1,2.4,2.2,4,1.5c1.5-0.7,3.6-3.3,4.6-4.5C99.5,214.5,95.9,222.7,93.8,225z M99.6,139.3c-1.1,0.4-2.1,1.5-3,2.2
		c-3,2.2-6.1,4.6-9.7,5.3c-2.5,0.5-6.8-0.2-8.5-2.5c-0.7-1-0.9-2.9,0.3-3.7c0.7-0.5,2.5-0.4,3.4-0.6c2.1-0.3,4.3-0.3,6.4-0.3
		c-1.6-2-3.8-3.1-5.9-4.4c-1.2-0.7-1.7-1.3-1.5-2.5c0.4,0,1.3-0.9,1.9-1.3c1.1-0.6,2.4-0.9,3.7-1c1.8,0,3,0.9,4.2,2
		c1.7,1.6,3.6,2.9,5.6,4.1c1.6,0.9,3.4,1.1,4.8,1.9C101.1,139.4,100.3,139.1,99.6,139.3z M142,201.7c-2,1.3,1-5.7-1-9.7
		c-1.4-2.8-3.3-5.7-6-7c-3-1.5-8,0-6-2C137,177,151,195.3,142,201.7z"/>
	<path class="st1" d="M203.9,247.1c1.3-2.3,3.3-4.3,4.6-6.7c1.3-2.3,2.5-5,3.4-7.7c-1.7-2.1-4.9-2.9-7.2-4c-3.1-1.5-6.1-2.1-9.4-3.4
		c-2.2-0.8-4.2-1.1-6.4-1.9c-0.6-0.2-2.3-0.2-4.5-0.1c-1.6,1.6-3.1,3.4-4.5,5.2c1.3,0,2.7,0,3.8,0.4c2,0.5,5.7,2.4,5.5,4.9
		c-1.2,0-2.8-1.3-4-1.6c-2.1-0.7-4.7-1.3-7-1.4c-0.4,0.5-0.7,1-1.1,1.5c0,0.1-0.1,0.1-0.1,0.2c2.5,0.7,10,3,9.1,5.3
		c-2.1-0.1-4.3-1-6.3-1.5c-1.7-0.4-3.3-0.7-4.9-0.9c-2.4,3.3-4.6,6.8-5.1,10.7c-0.8,6.8,11.3,10.5,16,13.4c4.7,2.9,8.7,3.9,4.1,11.1
		c-0.9,1.4-7.6,7.3-9.7,9.2c-2.7,2.4-5.8,4.9-8.2,7.8c-0.9,1.1-2,2.1-2.5,3.5c-0.3,0.9,0.1,2-0.2,2.9c0,0.1-0.1,0.2-0.1,0.3
		c1.3,2.2,7.7,2.9,11.5,3.4c0.4,0,0.8-0.1,1.2-0.4c0.7-0.6,1.1-2.2,1.6-3c1.9-3.4,4.5-7,7.2-9.8c1.5-1.5,8.4-7.6,10.3-9.3
		c3-2.7,6.6-5.4,9-8.7C215.5,259.2,199.6,254.6,203.9,247.1z"/>
</g>
</svg>
